<?xml version="1.0" encoding="utf-8"?>
<!-- Generator: Adobe Illustrator 24.3.0, SVG Export Plug-In . SVG Version: 6.00 Build 0)  -->
<svg version="1.1" id="Layer_1" xmlns="http://www.w3.org/2000/svg" xmlns:xlink="http://www.w3.org/1999/xlink" x="0px" y="0px"
	 viewBox="0 0 2500 2500" style="enable-background:new 0 0 2500 2500;" xml:space="preserve">
<style type="text/css">
	.st0{fill-rule:evenodd;clip-rule:evenodd;fill:#EAEAEA;}
</style>
<g>
	<polygon class="st0" points="1664.6,1678.2 1664.6,1678.2 1664.6,1678.2 	"/>
	<path class="st0" d="M1055,1275.7c0,105.5,54.6,177,148.5,177c68.7,0,130.2-42.3,169.1-111c48.1-84.5,45.7-163.9,45.7-259.1v-52.9
		C1241.6,1029.7,1055,1067.5,1055,1275.7z"/>
	<path class="st0" d="M1250,17.6C569.4,17.6,17.6,569.4,17.6,1250S569.4,2482.4,1250,2482.4S2482.4,1930.6,2482.4,1250
		S1930.6,17.6,1250,17.6z M1388.7,625.2c-29.9-45-87-63.6-137.1-63.6c-93.1,0-176.3,47.8-196.6,146.7c-4.1,22-20.3,43.7-42.3,44.7
		l-237.1-25.4c-19.9-4.5-41.9-20.6-36.4-51.2c54.6-287.3,314.1-373.9,546.4-373.9c118.9,0,274.2,31.6,368.1,121.7
		c118.9,111,107.6,259.1,107.6,420.3v380.8c0,114.4,47.4,164.6,92.1,226.5c15.8,22,19.2,48.5-0.7,65
		c-49.8,41.6-138.5,118.9-187.3,162.2l-0.7-0.7c-16.2,14.4-39.5,15.5-57.7,5.8c-81.1-67.4-95.5-98.6-140.2-162.9
		c-134,136.8-228.9,177.7-402.8,177.7c-205.5,0-365.7-126.8-365.7-380.8c0-198.3,107.6-333.4,260.5-399.3
		c132.7-58.4,317.9-68.7,459.5-84.9v-31.6C1418.2,744.1,1422.7,675.3,1388.7,625.2z M1953.7,1872.7
		c-32.1,41.1-289.1,276.8-721,276.8c-431.6,0-762.3-294.9-863.1-417.2c-27.6-31.7,4.2-46.1,23-34.5
		c302.9,184.4,776,487.9,1538.3,125.1h0C1963.1,1809.4,1985.6,1831.9,1953.7,1872.7z M2118,1881.6c-26.5,65-66.1,111-87.9,128.8
		c-22.2,17.8-38.5,10.9-26.7-15.8c12.2-26.7,79-192,52.6-226.7c-26.4-34.5-152.9-18.5-198-14c-45,4-54,8.1-58.4-0.9
		c-8.6-24.1,89.8-64.1,155.4-71.9c65.5-8,169.5-3.1,189.9,23.6l0,0C2160.5,1724.9,2144.4,1816.2,2118,1881.6z"/>
</g>
</svg>
