<?xml version="1.0" encoding="utf-8"?>
<!-- Generator: Adobe Illustrator 24.3.0, SVG Export Plug-In . SVG Version: 6.00 Build 0)  -->
<svg version="1.1" id="Capa_1" xmlns="http://www.w3.org/2000/svg" xmlns:xlink="http://www.w3.org/1999/xlink" x="0px" y="0px"
	 viewBox="0 0 13.8 13.8" style="enable-background:new 0 0 13.8 13.8;" xml:space="preserve">
<style type="text/css">
	.st0{fill:#EAEAEA;}
</style>
<path class="st0" d="M6.9,0.2c-3.7,0-6.7,3-6.7,6.7s3,6.7,6.7,6.7s6.7-3,6.7-6.7S10.6,0.2,6.9,0.2z M7.2,2.3c0.4-0.4,1-0.7,1.5-0.8
	c0.1,0.6-0.2,1.2-0.5,1.6C7.8,3.6,7.3,3.9,6.7,3.9C6.6,3.3,6.9,2.7,7.2,2.3z M10.1,10.3c-0.4,0.6-0.8,1.2-1.5,1.2
	c-0.7,0-0.9-0.4-1.6-0.4c-0.8,0-1,0.4-1.6,0.4c-0.7,0-1.2-0.7-1.6-1.3c-0.9-1.2-1.5-3.5-0.6-5C3.5,4.5,4.3,4,5.1,4
	c0.6,0,1.3,0.4,1.6,0.4c0.4,0,1.1-0.5,1.9-0.5C9,4,9.9,4.1,10.5,5c0,0-1.1,0.6-1.1,1.9c0,1.5,1.3,2,1.3,2
	C10.8,8.9,10.6,9.6,10.1,10.3z"/>
</svg>
